<svg xmlns="http://www.w3.org/2000/svg" width="24.055" height="20.447" viewBox="0 0 24.055 20.447">
  <path id="Path_17983" data-name="Path 17983" d="M4059.447,4353a3.6,3.6,0,0,1,3.608,3.608v8.419a3.6,3.6,0,0,1-3.608,3.609h-7.926l-4.811,4.811h-2.9v-4.811h-1.2a3.6,3.6,0,0,1-3.608-3.609v-8.419a3.6,3.6,0,0,1,3.608-3.608Zm1.2,3.608a1.206,1.206,0,0,0-1.2-1.2h-16.838a1.207,1.207,0,0,0-1.2,1.2v8.419a1.207,1.207,0,0,0,1.2,1.2h3.608v4.306l4.306-4.306h8.924a1.206,1.206,0,0,0,1.2-1.2Z" transform="translate(-4039 -4353)" fill="#111" fill-rule="evenodd"/>
</svg>
