<svg xmlns="http://www.w3.org/2000/svg" width="20.446" height="19.244" viewBox="0 0 20.446 19.244">
  <g id="Group_167036" data-name="Group 167036" transform="translate(-1209.721 -36.204)">
    <path id="Path_17984" data-name="Path 17984" d="M2472.451,10295.322a4.306,4.306,0,0,1,3.344-1.32,3.926,3.926,0,0,1,2.321.6,3.99,3.99,0,0,1,1.66,1.684,5.019,5.019,0,0,1,.577,2.523,4.957,4.957,0,0,1-1.251,3.49,4.307,4.307,0,0,1-3.344,1.322,5.052,5.052,0,0,1-2.309-.6h-.012a4,4,0,0,1-1.66-1.686h0a5.144,5.144,0,0,1-.577-2.525A4.764,4.764,0,0,1,2472.451,10295.322Zm3.344,1.084a2.06,2.06,0,0,0-1.624.6,2.292,2.292,0,0,0-.565,1.8,3.231,3.231,0,0,0,.3,1.445,4.951,4.951,0,0,0,.7.721,3.089,3.089,0,0,0,1.155.24,2.02,2.02,0,0,0,1.6-.6h.012a2.448,2.448,0,0,0,.577-1.807,3.417,3.417,0,0,0-.289-1.443h0a4.461,4.461,0,0,0-.722-.719A2.87,2.87,0,0,0,2475.795,10296.406Z" transform="translate(-1256.428 -10257.798)" fill="#111" fill-rule="evenodd"/>
    <path id="Path_17985" data-name="Path 17985" d="M2471.523,10306.008a3.7,3.7,0,0,0-1.552,1.684,5.228,5.228,0,0,0-.565,2.525v1.2H2467v-1.2a8.521,8.521,0,0,1,.83-3.728,6.068,6.068,0,0,1,2.49-2.526,7.3,7.3,0,0,1,3.873-.963h4.859a10.01,10.01,0,0,1,2.754.361l-2.021,2.045h-5.593A5.544,5.544,0,0,0,2471.523,10306.008Z" transform="translate(-1257.279 -10255.972)" fill="#111"/>
    <path id="Path_17986" data-name="Path 17986" d="M2485.014,10308.008a3.007,3.007,0,1,1-3.007-3.007A2.992,2.992,0,0,1,2485.014,10308.008Z" transform="translate(-1254.846 -10255.567)" fill="#0058a3"/>
  </g>
</svg>
