<svg xmlns="http://www.w3.org/2000/svg" width="20.41" height="14" viewBox="0 0 20.41 14">
  <g id="Group_167013" data-name="Group 167013" transform="translate(-5297.79 -2529)">
    <path id="Path_1320" data-name="Path 1320" d="M5308,2532a4,4,0,1,0,4,4A4,4,0,0,0,5308,2532Zm-2,4a2,2,0,1,1,2,2A2,2,0,0,1,5306,2536Z" fill="#111" fill-rule="evenodd"/>
    <path id="Path_1321" data-name="Path 1321" d="M5318.2,2536c-.19.28-.37.57-.58.85-.12.17-.31.42-.55.72a21.776,21.776,0,0,1-2.03,2.17c-1.68,1.55-4.17,3.26-7.04,3.26s-5.36-1.71-7.04-3.26a21.776,21.776,0,0,1-2.03-2.17c-.24-.3-.43-.55-.56-.72-.2-.28-.38-.57-.58-.85l.38-.56c.24-.35.49-.68.76-1.01a21.776,21.776,0,0,1,2.03-2.17c1.68-1.55,4.17-3.26,7.04-3.26s5.36,1.71,7.04,3.26a21.776,21.776,0,0,1,2.03,2.17c.24.3.43.55.55.72C5317.83,2535.43,5318.01,2535.72,5318.2,2536Zm-17.96,0a18.423,18.423,0,0,1,2.07-2.26c1.58-1.45,3.59-2.74,5.69-2.74s4.11,1.29,5.69,2.74a2.269,2.269,0,0,1,0,4.52c-1.58,1.45-3.59,2.74-5.69,2.74s-4.11-1.29-5.69-2.74A18.423,18.423,0,0,1,5300.24,2536Z" fill="#111" fill-rule="evenodd"/>
  </g>
</svg>
